<svg xmlns="http://www.w3.org/2000/svg" viewBox="0 0 135.98 254.75"><defs><style>.cls-1{fill:#545ae4;}.cls-2{fill:#3228bd;}.cls-3{fill:#ff9d7d;}.cls-4{fill:#e0693e;}.cls-5{fill:#353c6d;}.cls-6{fill:#121633;}.cls-7{opacity:0.8;}.cls-8{fill:#fa7027;}.cls-9{fill:#f2f7f9;}.cls-10{fill:#d34606;}</style></defs><title>Female Character</title><g id="Layer_2" data-name="Layer 2"><g id="OBJECTS"><path class="cls-1" d="M111.33,164.86A8.66,8.66,0,0,1,104.1,161c-.14-.21-3.47-5.26-7-11.36-6.93-11.8-8.46-16.71-9-19.38C85.85,119.72,80,79.45,79.7,77.74a8.66,8.66,0,0,1,17.13-2.5c.06.41,6.07,41.46,8.15,51.48.75,3.63,7.62,15.71,13.57,24.71a8.67,8.67,0,0,1-7.22,13.43Z"/><path class="cls-2" d="M104.82,127.12a.48.48,0,0,1,.3.29.46.46,0,0,1-.28.59,17.13,17.13,0,0,1-7.84.8.46.46,0,0,1-.37-.53.48.48,0,0,1,.54-.38,16.51,16.51,0,0,0,7.36-.76A.41.41,0,0,1,104.82,127.12Z"/><path class="cls-2" d="M104.23,127.38a.33.33,0,0,1,.13.07.45.45,0,0,1,.1.64,11.35,11.35,0,0,1-3.47,2.79.47.47,0,0,1-.42-.83,10.4,10.4,0,0,0,3.15-2.5A.45.45,0,0,1,104.23,127.38Z"/><path class="cls-2" d="M102.08,157.67a.57.57,0,0,1-.24-.08.58.58,0,0,1-.21-.8c.21-.36,5.21-8.73,13.2-10.24a.59.59,0,0,1,.22,1.16c-7.46,1.41-12.36,9.59-12.41,9.67A.57.57,0,0,1,102.08,157.67Z"/><path class="cls-2" d="M114.31,157.57a.58.58,0,0,1-.39-.19,68.6,68.6,0,0,1-5.39-7,.59.59,0,0,1,1-.64,66,66,0,0,0,5.28,6.88.6.6,0,0,1,0,.84A.57.57,0,0,1,114.31,157.57Z"/><path class="cls-2" d="M115.68,151.77a.85.85,0,0,1-.92.76.84.84,0,0,1,.15-1.68A.85.85,0,0,1,115.68,151.77Z"/><path class="cls-3" d="M115.68,153.25c1.28-.21,2.95,1.28,4.54,1.9a19.89,19.89,0,0,1,6.36,4.14c2,2.22,7.7,9.08,7.48,11.57s-5.55-3-6.67-4.16a5.94,5.94,0,0,0-2.28-1.45s11.26,13.66,10.86,15.62-7.58-5.17-9.34-7c0,0,7.91,10.76,7.27,11.93-1.29,2.34-10.42-9.36-10.42-9.36s6.2,9.39,4.62,10.37-8.27-9.05-8.27-9.05S123,184.52,122,186s-8.91-12.15-10-14.28-4.56-7.33-5.27-10.41C106.22,159.2,111.64,153.9,115.68,153.25Z"/><path class="cls-4" d="M116.45,175.08a.49.49,0,0,0,.54.37,14.22,14.22,0,0,0,9.24-5.91.5.5,0,1,0-.84-.54h0c0,.05-3.12,4.72-8.53,5.46a.5.5,0,0,0-.42.56A.13.13,0,0,0,116.45,175.08Z"/><path class="cls-4" d="M113.34,163a.48.48,0,0,0,.42.36c5.88.73,7.23,5.18,7.24,5.22a.5.5,0,0,0,.62.34.49.49,0,0,0,.34-.6h0c-.06-.21-1.55-5.13-8.08-5.93a.49.49,0,0,0-.55.43A.41.41,0,0,0,113.34,163Z"/><path class="cls-5" d="M42.6,56.22s-10-4.52-17.08-.6S15.7,73.55,15.7,73.55H35Z"/><path class="cls-5" d="M23.91,86.75S8.48,72.25,2.51,87C-3.92,102.91,4,113.75,4,113.75l12.27-9.67Z"/><path class="cls-6" d="M64.3,55.92s-23-15.74-45.95,14-15.3,69.16.83,80.66S56.31,152,56.31,152Z"/><path class="cls-1" d="M92.9,102.67c-.11,1.16-.19,2.58-.26,4.23q0,.85-.06,1.77c-.18,5.13-.27,11.87-.58,18.87,0,.63-.06,1.26-.1,1.89-.75,15.07.63,20.74,1.92,26.55,2.92,13.13-49.86,9.51-57.89,6.19-6.09-2.52-7.94-33.48-6.51-52.72,0-.65.09-1.29.14-1.92.38-5.24.66-9.53.61-12-.25-11.65,1-24.1,2.57-29.46S53.66,56,53.66,56L76,58.27A37.79,37.79,0,0,1,93,68C100.85,75.83,94,90.4,92.9,102.67Z"/><path class="cls-2" d="M92.62,101.36h-.05a.55.55,0,0,1-.58-.51c-.6-8.51.51-20.74.53-20.87a.53.53,0,0,1,.59-.49.54.54,0,0,1,.5.59c0,.13-1.12,12.27-.53,20.69A.55.55,0,0,1,92.62,101.36Z"/><path class="cls-2" d="M57.14,122.37h.15c12.94-.86,22.87-13.83,23.4-14.47a.7.7,0,0,0-.08-1,.69.69,0,0,0-1,.09c-.11.13-11.27,13.23-22.43,14a.7.7,0,0,0-.06,1.38Z"/><path class="cls-2" d="M68.57,70.17c-8.41.21-16.54-9.4-16.88-9.81a.68.68,0,0,1,.08-1,.67.67,0,0,1,.94.09c.08.09,8.07,9.52,15.83,9.33h0c5.5-.14,7.51-5.91,7.59-6.15a.67.67,0,0,1,.85-.42.66.66,0,0,1,.42.84c-.09.28-2.38,6.9-8.83,7.07Z"/><path class="cls-6" d="M73,.2S50.33-3.35,44.67,19.41c-4.22,17-5.07,24.89-5.07,24.89S62.3,55.37,89.68,54.41c0,0,8.23-21.84,3.57-37.55S73,.2,73,.2Z"/><path class="cls-4" d="M86,33.53s3.72-3.33,5,.69-1.16,11.48-5.86,9.55Z"/><path class="cls-3" d="M75.24,51.79l-1,10.34s-7.17,8.3-22-4.86c3.58-3,4.61-9.61,3.91-13.78a20.56,20.56,0,0,1,2.94,2,10.82,10.82,0,0,0,1.23.75C64.13,48.55,70,51.47,75.24,51.79Z"/><path class="cls-6" d="M75.24,51.79l-.47,4.9c-4.32-1.61-12-5.14-15.73-11.17l1.23.75C64.13,48.55,70,51.47,75.24,51.79Z"/><path class="cls-3" d="M89.2,34c-.16,1.08-.3,2.09-.45,3-1.11,7.18-2.16,11.06-4.14,12.61-10,7.84-27.92-5.66-28.49-6.09h0C56,42.68,56,41.86,56,41a63.7,63.7,0,0,1,2-19,14.47,14.47,0,0,1,11.27-13c6.41-1.38,11.52,2.06,14.67,3.53,4.75,2.22,7,9.07,5.75,18.23C89.48,31.92,89.34,33,89.2,34Z"/><path class="cls-6" d="M81.46,34.21a4.6,4.6,0,0,0,1,0,.5.5,0,0,0,.34-.2.47.47,0,0,0,.08-.38l-1.07-5.32a.48.48,0,1,0-.94.19l1,4.74a3.81,3.81,0,0,1-1.9-.69.49.49,0,0,0-.68.1.48.48,0,0,0,.11.68A4.75,4.75,0,0,0,81.46,34.21Z"/><path class="cls-4" d="M74.4,33.47c-.12.84-2,1.29-4.11,1s-3.8-1.23-3.69-2.07,2-1.3,4.11-1S74.51,32.62,74.4,33.47Z"/><g class="cls-7"><path class="cls-4" d="M89.2,34c-.16,1.08-.3,2.09-.45,3-2-.35-3.42-1.22-3.31-2S87.2,33.75,89.2,34Z"/></g><path class="cls-6" d="M76.38,20.56a1.79,1.79,0,0,1,1.08.33,1.17,1.17,0,0,1,.24,1.68c-.87,1.58-4.26-.76-7.29,1.95C70.41,24.52,69.88,20.53,76.38,20.56Z"/><path class="cls-6" d="M85,21.71s-1.85-.08-1.44,1.68,4.31.42,6.49,3.85C90.06,27.24,91.72,23.4,85,21.71Z"/><path class="cls-6" d="M56.49,27.61s4,3.35,4.06,6.65c0,0,2.06-5.84,1.85-9.74s4.28-9.55,11.77-9,6-3.08,6-3.08,4.78,8.4,10.63,8.72A12.31,12.31,0,0,0,82.3,8.75C72.93,5.39,57,5.56,56.49,27.61Z"/><path class="cls-8" d="M53.44,23.78S54.11,5.37,73.32,5.05,94.55,20.71,90.22,32c0,0,3.8-13.56-3.06-19.75-6-5.39-15.19-7-25.33-.43-5.84,3.81-8.39,12-8.39,12Z"/><path class="cls-9" d="M71.88,36.05l-.39-.14A6.77,6.77,0,1,1,80.23,32h0A6.8,6.8,0,0,1,71.88,36.05Zm3.7-11.91a5.69,5.69,0,1,0,3.64,7.46h0a5.71,5.71,0,0,0-3.31-7.35Zm4.14,7.65Z"/><path class="cls-9" d="M87.39,38.68l-.4-.14a6.79,6.79,0,0,1-3.94-8.74,6.78,6.78,0,0,1,12.67,4.81,6.78,6.78,0,0,1-8.33,4.07Zm3.68-11.92a5.74,5.74,0,1,0,.34.12Z"/><path class="cls-9" d="M80,30.57a.56.56,0,0,1-.25-.16.55.55,0,0,1,0-.76,3.26,3.26,0,0,1,2.13-.78,2.36,2.36,0,0,1,1.68.91.54.54,0,0,1-.06.76.55.55,0,0,1-.76-.06,1.31,1.31,0,0,0-.93-.53,2.17,2.17,0,0,0-1.35.51A.53.53,0,0,1,80,30.57Z"/><path class="cls-9" d="M54.7,27.46a.49.49,0,0,1-.29-.22.52.52,0,0,1,.15-.74c5.93-3.91,13.27-.37,13.58-.22a.54.54,0,1,1-.47,1c-.07,0-7.11-3.42-12.51.15A.54.54,0,0,1,54.7,27.46Z"/><path class="cls-6" d="M83.86,31.92h0a.48.48,0,0,0,.58-.32c0-.05.36-1.2,1.34-1.13s1.6,1.36,1.61,1.37a.46.46,0,1,0,.86-.35,3.14,3.14,0,0,0-2.4-1.94,2.34,2.34,0,0,0-2.31,1.79A.46.46,0,0,0,83.86,31.92Z"/><path class="cls-6" d="M76.47,30.15h0a.52.52,0,0,1-.57-.47c0-.05-.17-1.39-1.26-1.5a2.49,2.49,0,0,0-2,1.2.53.53,0,0,1-.72.16.52.52,0,0,1-.16-.71,3.48,3.48,0,0,1,3-1.68,2.61,2.61,0,0,1,2.2,2.43A.51.51,0,0,1,76.47,30.15Z"/><path class="cls-9" d="M71.62,36.08s.91,5.73,5.27,7.25c5,1.74,7-4.48,7-4.48Z"/><path class="cls-4" d="M78.47,45.56l.31-.06a.42.42,0,0,0-.2-.82A2.69,2.69,0,0,1,76,43.89a.42.42,0,1,0-.63.56A3.51,3.51,0,0,0,78.47,45.56Z"/><path class="cls-6" d="M60.55,39.33c-.07.13-2.09,3.46-4.43,4.2h0C56,42.68,56,41.86,56,41A8.93,8.93,0,0,0,60.55,39.33Z"/><path class="cls-3" d="M59.54,31s-3.78-6.89-7.87-2.45c-3.37,3.65.48,14.93,6.54,12.09Z"/><path class="cls-6" d="M57.83,38.63h.05a.48.48,0,0,0,.5-.47,9,9,0,0,0-4.24-7.95.48.48,0,0,0-.48.84h0a8.09,8.09,0,0,1,3.76,7.09A.47.47,0,0,0,57.83,38.63Z"/><path class="cls-6" d="M53.77,35.11a.51.51,0,0,0,.31-.07c.47-.28,1.84-.93,2.64-.6a.48.48,0,1,0,.36-.9c-1.38-.57-3.29.55-3.5.68a.48.48,0,0,0-.16.66A.49.49,0,0,0,53.77,35.11Z"/><path class="cls-6" d="M111.07,244.43c-33.28,17.63-94.22,7.32-94.22,7.32-.08-7.72.92-18.5,2.41-30.15.08-.58.15-1.16.23-1.74.91-7,2-14.2,3.13-21.23.07-.46.14-.91.22-1.37.35-2.15.7-4.29,1.05-6.39.08-.46.16-.92.23-1.37.67-4,1.34-7.78,2-11.37.1-.51.19-1,.28-1.51,2.58-14.36,4.68-24.68,4.68-24.68,35.62,9.94,61.65-.84,61.65-.84a210.91,210.91,0,0,1,6.35,20.25l.42,1.67c2.11,8.36,3.84,17.22,5.48,27.32.08.47.16.94.23,1.42q.77,4.81,1.53,10l.24,1.75h0c.81,5.66,1.62,11.72,2.47,18.27.08.58.16,1.17.23,1.77Q110.35,238.79,111.07,244.43Z"/><path class="cls-5" d="M58.36,247c-2.66,0-5.21-.05-7.62-.12a271,271,0,0,1-32.7-3,.63.63,0,0,1-.52-.73.63.63,0,0,1,.73-.52,268.6,268.6,0,0,0,32.54,3c16.73.53,40.32-.42,57.65-7.89a.64.64,0,0,1,.84.33.63.63,0,0,1-.33.83C93.9,245.36,74.28,247,58.36,247Z"/><path class="cls-5" d="M61.53,165.38c-3.3,0-6.42-.13-9.23-.34A138.47,138.47,0,0,1,30,161.65a.64.64,0,0,1-.46-.77.65.65,0,0,1,.77-.46,135.78,135.78,0,0,0,22.08,3.36c11.56.84,28.19.52,41.82-5.75a.64.64,0,0,1,.84.31.63.63,0,0,1-.31.84C84.22,164,72,165.38,61.53,165.38Z"/><path class="cls-5" d="M55,184.88a9.71,9.71,0,0,0-2.53-2.15c-1.21-.82-2.57-1.75-2.7-2.67a1.57,1.57,0,0,1,.45-1.22,3.89,3.89,0,0,0,0-4.59c-1.32-2.22-4.44-4.4-6.84-4-.62,0-6.09.32-7.14,4a2.18,2.18,0,0,0,.11,1.7c.52.92,1.74,1.27,3,1.63,1.8.51,3.66,1,4.2,2.93a11.43,11.43,0,0,1,.1,4.21c-.28,2.84-.6,6.05,4.15,7.61a8.28,8.28,0,0,0,2.57.46,4.91,4.91,0,0,0,4.07-2A5.56,5.56,0,0,0,55,184.88ZM53.47,190c-.77,1-2.3,2-5.24,1.07-3.78-1.24-3.57-3.36-3.28-6.28a12.18,12.18,0,0,0-.15-4.69c-.73-2.57-3.13-3.25-5.06-3.79-1-.3-2-.57-2.27-1,0-.06-.14-.26,0-.73.84-2.89,6-3.06,6-3.06h.1c1.65-.3,4.36,1.35,5.57,3.39a2.66,2.66,0,0,1,.11,3.14,2.83,2.83,0,0,0-.72,2.2c.22,1.47,1.76,2.52,3.24,3.54A9.35,9.35,0,0,1,54,185.6,4.36,4.36,0,0,1,53.47,190Z"/><path class="cls-5" d="M105,200.34a13.94,13.94,0,0,1-3.78,2.14c-3.45,1.29-8.29,1.51-10.58-2.1-2.5-3.94-.35-6,2.15-8.43,1.76-1.7,3.59-3.46,3.71-6,.14-2.84-2.09-4.5-4.06-6-2.61-1.94-4-3.16-2.11-5.8a5.75,5.75,0,0,1,3.83-2.54,5.93,5.93,0,0,1,.84-.06A9.21,9.21,0,0,1,99.48,173l-.42-1.67a9.12,9.12,0,0,0-5.12-.93,7,7,0,0,0-4.68,3.05c-2.7,3.79,0,5.79,2.38,7.55,1.89,1.4,3.67,2.72,3.56,4.89s-1.67,3.53-3.33,5.13c-2.53,2.44-5.39,5.21-2.34,10a8,8,0,0,0,7.1,3.54,14.42,14.42,0,0,0,5-.94,15.47,15.47,0,0,0,3.56-1.9C105.12,201.28,105,200.81,105,200.34Z"/><path class="cls-5" d="M109.44,231.81a4.61,4.61,0,0,1-2.59,2.06,7.7,7.7,0,0,1-9.22-4A4.32,4.32,0,0,1,99.41,224a4.34,4.34,0,0,0,2.21-2.76c.38-1.85-.87-3.65-2.07-5.38-.9-1.28-1.83-2.61-1.67-3.54a1.61,1.61,0,0,1,.76-1,3.56,3.56,0,0,1,2.09-.62c2.08,0,4.46,1.44,6.23,2.8l-.24-1.75c-2.65-1.8-6.13-3.33-8.81-1.47a2.83,2.83,0,0,0-1.27,1.81c-.26,1.45.77,2.93,1.87,4.5s2.14,3.07,1.87,4.39A3.18,3.18,0,0,1,98.74,223a5.55,5.55,0,0,0-2.26,7.43,9.07,9.07,0,0,0,8.09,5.1,8.67,8.67,0,0,0,2.66-.42,5.67,5.67,0,0,0,2.44-1.5C109.6,233,109.52,232.39,109.44,231.81Z"/><path class="cls-5" d="M28.29,209.65a3.18,3.18,0,0,1-2.16-1.34c-.66-1.18-.1-3,.44-4.76s1.09-3.56.4-4.85a2.79,2.79,0,0,0-1.77-1.34,4.64,4.64,0,0,0-2.36-.1c-.08.46-.15.91-.22,1.37a3.55,3.55,0,0,1,2.21-.06,1.6,1.6,0,0,1,1,.72c.45.83,0,2.38-.49,3.89-.62,2-1.26,4.1-.33,5.75A4.32,4.32,0,0,0,28,210.88a4.31,4.31,0,0,1,3.48,5,7.71,7.71,0,0,1-7.55,6.63h0a5.36,5.36,0,0,1-4.39-2.66c-.08.58-.15,1.16-.23,1.74a6.12,6.12,0,0,0,4.62,2.19h0a9,9,0,0,0,8.8-7.75A5.56,5.56,0,0,0,28.29,209.65Z"/><path class="cls-5" d="M72.81,202.19A12.63,12.63,0,0,0,64.33,195c-2.6-.64-4.76-.31-6.43,1a3.35,3.35,0,0,0-1.61,2.51c0,1.37,1.29,2.38,2.93,3.66a16.06,16.06,0,0,1,4.29,4.36c.94,1.61-.66,2.87-3.36,4.8-2.28,1.64-4.64,3.33-4.89,5.74a5.63,5.63,0,0,0,1.86,4.34,6.91,6.91,0,0,0,5.18,2.24,10.19,10.19,0,0,0,5.57-1.84,15,15,0,0,0,6.55-12.41A17.45,17.45,0,0,0,72.81,202.19ZM67.17,220.7c-3.37,2.23-7,2.15-9.12-.2a4.47,4.47,0,0,1-1.53-3.35c.19-1.85,2.31-3.36,4.37-4.84,2.6-1.86,5.28-3.78,3.71-6.47a17.29,17.29,0,0,0-4.6-4.72c-1.31-1-2.45-1.91-2.45-2.66,0-.42.38-.93,1.13-1.51a5.12,5.12,0,0,1,3.23-1,8.71,8.71,0,0,1,2.12.28,10.92,10.92,0,0,1,4.51,2.32,11.82,11.82,0,0,1,3.11,4.19C75.23,210.67,71.84,217.62,67.17,220.7Z"/><path class="cls-5" d="M81.26,177.53a14.9,14.9,0,0,0-16-7.46,10.12,10.12,0,0,0-1.19.31A3.87,3.87,0,0,0,61.46,173c-.56,2,.3,4.51,2.35,7,1.33,1.61,3.4,2.41,5.4,3.18,3.3,1.27,6.15,2.37,6.15,6.58,0,4.6,2.61,5,3.41,5.07h.12c2.5,0,5.43-2.8,5.72-6.93,0-.18,0-.36,0-.55C84.63,184.85,83.49,181.54,81.26,177.53Zm2.09,10.3c-.26,3.65-2.81,5.8-4.53,5.75-1.4-.05-2.2-1.44-2.2-3.81,0-5.08-3.7-6.5-7-7.76-1.93-.75-3.76-1.45-4.87-2.8-1.76-2.14-2.55-4.32-2.11-5.85a2.61,2.61,0,0,1,1.82-1.78,8.16,8.16,0,0,1,1-.27,13.41,13.41,0,0,1,9.54,1.62,13.87,13.87,0,0,1,5.07,5.21C82.4,182.18,83.5,185.53,83.35,187.83Z"/><path class="cls-5" d="M49.5,202.46a6.05,6.05,0,0,0-11.15-1.72c-2.27,3.43-2.43,8.76-.35,11.88a3.59,3.59,0,0,0,2.61,1.73l.44,0c1.62,0,3.54-1,5.72-3A9,9,0,0,0,49.5,202.46Zm-3.58,8c-2.07,1.9-3.86,2.82-5.16,2.66a2.38,2.38,0,0,1-1.71-1.17c-1.82-2.73-1.66-7.44.35-10.48A4.92,4.92,0,0,1,43.48,199a5.08,5.08,0,0,1,.93.08,4.64,4.64,0,0,1,3.86,3.73,7.3,7.3,0,0,1,.24,1.86A7.91,7.91,0,0,1,45.92,210.43Z"/><path class="cls-5" d="M90.51,205.7c-2.11-2.9-6.41-4.65-9.59-3.91a3.22,3.22,0,0,0-2.25,1.64c-.69,1.34-.51,3.34.55,5.95a7.9,7.9,0,0,0,6.44,5,6.39,6.39,0,0,0,.75,0,5.11,5.11,0,0,0,4.57-2.6A5.26,5.26,0,0,0,90.51,205.7Zm-.62,5.41a3.88,3.88,0,0,1-4.09,2,6.44,6.44,0,0,1-3.25-1.31,6.82,6.82,0,0,1-2.15-2.85c-.89-2.19-1.1-3.93-.6-4.9a2,2,0,0,1,1.41-1,6.12,6.12,0,0,1,1.31-.14,9.17,9.17,0,0,1,7,3.56A4,4,0,0,1,89.89,211.11Z"/><path class="cls-5" d="M54.53,238.78a5.11,5.11,0,0,0,4.35,3,6.15,6.15,0,0,0,.75,0,7.9,7.9,0,0,0,6.81-4.42c1.26-2.51,1.61-4.5,1-5.89a3.18,3.18,0,0,0-2.1-1.81c-3.11-1-7.54.41-9.87,3.13A5.25,5.25,0,0,0,54.53,238.78Zm1.92-5.19a9.19,9.19,0,0,1,7.23-3,5,5,0,0,1,1.29.25,1.93,1.93,0,0,1,1.32,1.09c.43,1,.08,2.72-1,4.83a6.88,6.88,0,0,1-2.38,2.68,6.49,6.49,0,0,1-3.34,1.05,3.9,3.9,0,0,1-3.92-2.29A4,4,0,0,1,56.45,233.59Z"/><path class="cls-5" d="M30.19,183.61a10.68,10.68,0,0,0-3.81-7c-.09.5-.18,1-.28,1.51a9.1,9.1,0,0,1,2.83,5.59,5.24,5.24,0,0,1-3.15,5.11,10.1,10.1,0,0,1-1.66.67c-.07.45-.15.91-.23,1.37a10.87,10.87,0,0,0,2.48-.92C29.07,188.55,30.42,186.29,30.19,183.61Z"/><path class="cls-5" d="M50.62,221.7a5.51,5.51,0,0,0-4-2.71,4.17,4.17,0,0,0-3.39.48c-1.11.87-1.2,2.44-1.3,4-.17,2.71-.32,5-4.71,5-4.83,0-8,1.16-9.48,3.43-1.08,1.69-1.1,3.9,0,6.23,1,2.11,4.65,3,8.24,3,.4,0,.79,0,1.18,0,5.23-.29,11.44-2.45,13.16-7.67C50.42,233,53,225.84,50.62,221.7ZM49.07,233v0c-1.52,4.63-7.21,6.55-12,6.82-4,.21-7.52-.75-8.2-2.24-.5-1.11-1.18-3.25,0-5s4.12-2.85,8.42-2.85c5.58,0,5.81-3.61,6-6.24.08-1.3.15-2.52.81-3a2,2,0,0,1,1.29-.34,6.69,6.69,0,0,1,1.1.11,4.2,4.2,0,0,1,3.14,2.09C51.62,226,49.1,232.94,49.07,233Z"/><path class="cls-5" d="M91,224.82c-1.79-4.57-7.06-7.2-10.67-6.71a3.17,3.17,0,0,0-3.07,2.79,12.34,12.34,0,0,0,.73,4.42c.57,2,1.12,3.89.3,5.21-.57.93-1.8,1.55-3.75,1.91-2.58.47-3.28,1.8-3.46,2.55-.34,1.37.42,3,2,4.23A9.76,9.76,0,0,0,79,241.14a12.17,12.17,0,0,0,5.61-1.44,13.35,13.35,0,0,0,6.27-6.81A10.65,10.65,0,0,0,91,224.82Zm-1.28,7.6A12,12,0,0,1,84,238.57c-4.32,2.25-8.18,1.22-10.17-.35-1.16-.91-1.77-2.06-1.55-2.93s1.06-1.35,2.45-1.61c2.33-.42,3.83-1.23,4.61-2.48,1.11-1.8.46-4-.16-6.23a11.39,11.39,0,0,1-.69-3.95c.11-1.16,1.14-1.54,2-1.65a5.09,5.09,0,0,1,.69-.05,10,10,0,0,1,8.63,6A9.45,9.45,0,0,1,89.71,232.42Z"/><path class="cls-6" d="M84.87,62S83,88.57,82.51,100.26a76.93,76.93,0,0,0,4.23,28.12,81.59,81.59,0,0,0,4.59,10.2c.58.21,3.92-6.17,2.32-16.59-3-19.2-.32-50.18-1.62-54.67S84.87,62,84.87,62Z"/><path class="cls-5" d="M92,86a22.92,22.92,0,0,0-7.38-2,2.35,2.35,0,0,0-2.49,2.11,98.46,98.46,0,0,0-.6,13.49,2.34,2.34,0,0,0,2.17,2.19l6.48.46a2.34,2.34,0,0,0,2.51-2.42,51.12,51.12,0,0,1,.64-11.21A2.33,2.33,0,0,0,92,86Z"/><path class="cls-6" d="M37.78,61.92A36.14,36.14,0,0,1,50,86.41c1.2,15.94-11.93,36.26-24.92,41.05a15.9,15.9,0,0,0-.69,11.43S51.86,133.67,58,100.16s-12.29-41-12.29-41C43.35,58.25,39.36,60.1,37.78,61.92Z"/><path class="cls-5" d="M50.68,81.49a22.61,22.61,0,0,1,7.49-1.14,2.32,2.32,0,0,1,2.21,2.36,97.45,97.45,0,0,1-1,13.36A2.33,2.33,0,0,1,57,98l-6.44-.3A2.31,2.31,0,0,1,48.4,95a50.87,50.87,0,0,0,.66-11.11A2.32,2.32,0,0,1,50.68,81.49Z"/><rect class="cls-8" x="15.65" y="133.86" width="57.75" height="41.2" rx="1.11" transform="translate(-84.29 58.3) rotate(-37.18)"/><rect class="cls-9" x="45.84" y="140.74" width="21.43" height="6.48" rx="3.01" transform="translate(137.09 11.91) rotate(52.82)"/><path class="cls-10" d="M79.09,154.09,34.85,187.65a1.1,1.1,0,0,1-1.55-.22l-2.81-3.7,46-34.9,2.81,3.71A1.1,1.1,0,0,1,79.09,154.09Z"/><path class="cls-1" d="M44.55,144.92,41.16,140c-1.15-1.66-2.28-3.33-3.39-5-2.24-3.33-4.42-6.66-6.44-10-1-1.65-2-3.31-2.86-4.93-.44-.81-.85-1.61-1.24-2.39s-.74-1.55-1-2.27c-.22-.53-.41-1-.55-1.47l.25-.5c.16-.31.34-.65.54-1,.39-.71.83-1.47,1.31-2.24s1-1.56,1.49-2.36c1-1.59,2.12-3.21,3.25-4.83s2.27-3.24,3.43-4.87,2.35-3.25,3.53-4.88L43,88.39l3.19-4.3c-1.38-2.16-2.81-4.29-4.26-6.4-2.85-4.17-5.85-8.27-8.29-12.69l-.51.66c-1.28,1.65-2.53,3.34-3.79,5s-2.47,3.38-3.7,5.09l-1.83,2.57L22,80.92c-2.4,3.47-4.74,7-7,10.65-1.13,1.84-2.26,3.7-3.37,5.63-.55,1-1.1,2-1.64,3s-1.08,2.07-1.61,3.21c-.27.57-.53,1.16-.8,1.79s-.53,1.3-.8,2.07a22.91,22.91,0,0,0-.8,2.8,16.06,16.06,0,0,0-.3,2.25v.78a2.37,2.37,0,0,0,0,.3v.25l0,.49,0,.25,0,.22c0,.29.07.58.11.87s.09.52.14.78.1.49.16.73l.08.34,0,.18,0,.16.18.64c.06.21.13.39.19.59.13.4.27.76.4,1.12a34,34,0,0,0,1.73,3.79,62.75,62.75,0,0,0,3.74,6.14c1.29,1.89,2.62,3.67,4,5.4,2.7,3.46,5.5,6.7,8.39,9.84,1.44,1.58,2.92,3.11,4.4,4.63l2.26,2.25,1.16,1.11.58.56.61.57a7.12,7.12,0,0,0,10.73-9.23Z"/><path class="cls-2" d="M28.29,148.31a.59.59,0,0,1-.22-.05.51.51,0,0,1-.25-.7c.15-.34,3.94-8.2,11-10.2a.53.53,0,0,1,.29,1c-6.55,1.86-10.25,9.55-10.29,9.63A.53.53,0,0,1,28.29,148.31Z"/><path class="cls-2" d="M39.19,147.24a.51.51,0,0,1-.36-.15,59.32,59.32,0,0,1-5.38-5.83.54.54,0,0,1,.09-.74.54.54,0,0,1,.75.09,58.1,58.1,0,0,0,5.26,5.71.53.53,0,0,1,0,.75A.52.52,0,0,1,39.19,147.24Z"/><path class="cls-2" d="M39.94,142a.75.75,0,1,1-.75-.76A.76.76,0,0,1,39.94,142Z"/><path class="cls-2" d="M46.12,88.25h-2.2a.53.53,0,1,1,0-1.06h2.2a.53.53,0,1,1,0,1.06Z"/><path class="cls-2" d="M29.65,108.21a.52.52,0,0,1-.44-.82L46.73,82a.53.53,0,0,1,.74-.13.52.52,0,0,1,.13.73L30.08,108A.54.54,0,0,1,29.65,108.21Z"/><path class="cls-2" d="M25.25,113.94a.53.53,0,0,0,.41-.2.51.51,0,0,0-.1-.73,19.2,19.2,0,0,0-8.16-3.49.52.52,0,0,0-.13,1,18.38,18.38,0,0,1,7.66,3.28A.55.55,0,0,0,25.25,113.94Z"/><path class="cls-3" d="M43.94,144c.44.48,1.77,2.16,2,2.33,3.13,2.8,7.75,2.68,9.76,4.49,0,0,14.22,8,11.42,9.81-1.54,1-4.26.07-6.39-.94l.29.45c2,2.94,7.7,5.65,6.21,8.16s-5.13-.24-5.13-.24-.75,2.8-5,1.84a3.47,3.47,0,0,1-3.9,1.66s-1.94,2.55-4.6,1.27c-2.26-1.09-7.3-7.28-14-18.06C36,150.59,38.79,147.07,43.94,144Z"/><path class="cls-2" d="M24.7,113.47l.17,0a.52.52,0,0,0,.32-.66,12.92,12.92,0,0,0-2.81-4.16.52.52,0,0,0-.73.75,11.76,11.76,0,0,1,2.55,3.75A.54.54,0,0,0,24.7,113.47Z"/></g></g></svg>