<svg xmlns="http://www.w3.org/2000/svg" viewBox="0 0 110.98 249.78"><defs><style>.cls-1{fill:#ff9d7d;}.cls-2{fill:#e0693e;}.cls-3{fill:#121633;}.cls-4{fill:#3228bd;}.cls-5{fill:#545ae4;}.cls-6{fill:#716d00;}.cls-7{fill:#4c4702;}.cls-8{fill:#353c6d;}.cls-9{fill:#f2f7f9;}</style></defs><title>Male Character</title><g id="Layer_2" data-name="Layer 2"><g id="OBJECTS"><path class="cls-1" d="M86,88.5c0,.06,0,.12,0,.17l0,.15.36,2.94.35,3,.68,6q.66,6,1.24,12c.15,1.52.29,3,.43,4.57.15,1.74.3,3.47.44,5.2.06.72.12,1.43.17,2.14.3,4,.56,7.9.71,11.77.08,1.93.14,3.86.14,5.7,0,.47,0,.91,0,1.37v1.29l0,.61,0,.63c0,.42,0,.83-.08,1.26a76.86,76.86,0,0,1-1.61,10.56C88,161.36,87,165,85.88,168.59c-.57,1.79-1.18,3.59-1.83,5.36-.32.88-.65,1.76-1,2.63l-.51,1.29L82.08,179l-.14.34c-2,4.9-.22,10.57,4,12.67s9.09-.08,11.19-4.74l.39-.87.35-.78.65-1.53c.43-1,.83-2,1.23-3q1.2-3,2.28-6.15c1.43-4.14,2.71-8.37,3.78-12.75.53-2.2,1-4.42,1.43-6.7s.75-4.59,1-7c.07-.59.11-1.2.16-1.8,0-.3,0-.6.07-.91l0-.91,0-.92c0-.3,0-.57,0-.86,0-.57,0-1.15,0-1.7,0-2.24,0-4.39,0-6.54-.09-4.29-.29-8.48-.52-12.64l-.18-3c-.06-1-.13-1.9-.19-2.85q-.23-3.3-.48-6.59-.48-6.18-1-12.32l-.58-6.15-.31-3.07-.32-3.1c-.62-5.91-5.36-10-10.6-9S85.39,82.59,86,88.5Z"/><path class="cls-2" d="M89.11,117.23c.15,1.74.3,3.47.44,5.2l18.34-3.2c-.06-1-.13-1.9-.19-2.85Z"/><path class="cls-3" d="M82,89l2.53,30.13L111,117.21s-1.13-31.53-8-38.44c-3.79-3.83-7.48-5.09-12.25-3.46A13.21,13.21,0,0,0,82,89Z"/><path class="cls-4" d="M46.85,57.92S36.38,51.13,27.7,57c-9.29,6.25-9.91,16.82-9.91,16.82l20.56,1.43Z"/><path class="cls-4" d="M26,87.39S11,72,4.25,86.72C-3,102.63,4.64,114,4.64,114l12.9-9.31Z"/><path class="cls-5" d="M67.35,58S44.6,41,20,70.19,1.42,139.9,17.34,152.3s37.71,3.12,37.71,3.12Z"/><path class="cls-6" d="M97.72,244.27l-.11,5.51H64.44c0-.39,0-.6,0-.6-.34-11.74-4-41.43-6.09-57.67-.18-1.35-.34-2.6-.49-3.74-.58-4.5-1-7.29-1-7.29l36.45-4.42Z"/><path class="cls-7" d="M71.59,248.25s0,.58-.1,1.53H69.93c0-.83.08-1.38.1-1.57-1.34-11.6-6.87-56.28-6.92-56.73a.78.78,0,0,1,1.55-.19c.06.45,5.6,45.32,6.93,56.81A.38.38,0,0,1,71.59,248.25Z"/><path class="cls-6" d="M25.23,160.25s-3.34,18-.74,29.08c0,0,51.11,4.6,69.55-2.43,0,0-.24-18-2.25-26.72Z"/><path class="cls-6" d="M58.66,187.86s-.12,1.32-.32,3.65c-.84,9.49-3.17,35.8-5.36,58.27H21.88L24,183.65l33.9,4.12Z"/><path class="cls-7" d="M58.54,158.14l0,.59C58.29,164,58,171.38,57.87,179c0,.42,0,.84,0,1.25,0,2.42-.07,4.84-.08,7.19a.6.6,0,0,0,.6.61h0a.61.61,0,0,0,.61-.6c0-2.28,0-4.61.07-6.94,0-.41,0-.82,0-1.23.14-7.62.42-15.1.64-20.38,0-.24,0-.48,0-.71Z"/><path class="cls-7" d="M63.52,158.14c0,.32,0,.65-.05,1-.32,6.85-.82,16.56-1.15,18.85a1.36,1.36,0,0,1-.68,1.09,4.13,4.13,0,0,1-2.56.16,11.83,11.83,0,0,1-1.21-.28,14.49,14.49,0,0,1-1.69-.6.61.61,0,0,0-.8.32.61.61,0,0,0,.31.79,14.15,14.15,0,0,0,2.16.74c.38.1.79.19,1.21.26a8.93,8.93,0,0,0,1.15.1,4.17,4.17,0,0,0,2-.43,2.6,2.6,0,0,0,1.3-2c.33-2.37.83-12.08,1.15-19,0-.36,0-.72,0-1.06Z"/><path class="cls-7" d="M53.61,190.86c0,.42-2.31,37.12-4,58.92H48.08c1.65-21.76,3.94-58.6,4-59a.79.79,0,0,1,1.57.1Z"/><path class="cls-3" d="M96.34,111.83c-.26,1.22-.52,2.73-.79,4.47-.09.6-.19,1.23-.29,1.88-.8,5.43-1.72,12.58-2.91,20-.1.66-.21,1.33-.33,2-2.63,15.93,2.79,19.07,1.56,24.18-3.91,16.21-63.34,10.47-69.09,3.17-2.69-3.43-.34-35.91,3.53-56.2.13-.69.26-1.36.38-2,1.05-5.52,1.86-10.06,2.11-12.73,1.15-12.41,4-25.51,6.32-31S60.3,57.39,60.3,57.39l22,3.69S93.16,65.7,100.61,75,99,98.93,96.34,111.83Z"/><path class="cls-8" d="M77.25,115.28a34.69,34.69,0,0,0-.3-12,34.81,34.81,0,0,0-4-11.35c-1.89-3.13-4-4.66-6-4.3s-3.4,2.54-4.06,6.14a34.71,34.71,0,0,0,.31,12,34.72,34.72,0,0,0,4,11.35c1.89,3.13,4,4.66,6,4.3S76.6,118.88,77.25,115.28Zm-1.79-11.75c1.66,9.08,0,15.93-2.54,16.4s-6.52-5.35-8.19-14.43,0-15.93,2.54-16.39S73.79,94.45,75.46,103.53Z"/><path class="cls-8" d="M63.55,115.67a34.82,34.82,0,0,0,10.67-5.54,35,35,0,0,0,8.47-8.55c2-3.07,2.42-5.65,1.24-7.25s-3.77-2-7.29-1A35,35,0,0,0,66,98.9a34.93,34.93,0,0,0-8.46,8.55c-2,3.07-2.43,5.65-1.24,7.25,1,1.37,3,1.83,5.78,1.32C62.52,115.93,63,115.82,63.55,115.67ZM82.71,95.23c.77,1,.3,3.06-1.3,5.52a33.19,33.19,0,0,1-8.08,8.16,33.51,33.51,0,0,1-10.19,5.3c-2.83.79-4.89.64-5.66-.4-1.53-2.08,1.94-8.21,9.38-13.68a33.22,33.22,0,0,1,10.19-5.31c.49-.13,1-.24,1.4-.33C80.55,94.11,82.07,94.36,82.71,95.23Z"/><path class="cls-8" d="M86.64,109.13c.54-1.92-.79-4.17-3.73-6.34a35.1,35.1,0,0,0-11-5A34.91,34.91,0,0,0,60,96.41c-3.64.33-5.94,1.57-6.48,3.49s.79,4.17,3.74,6.34a34.81,34.81,0,0,0,10.94,5,34.72,34.72,0,0,0,12,1.39c.54-.05,1-.12,1.53-.2C84.45,111.91,86.19,110.77,86.64,109.13ZM60.15,97.92a33.34,33.34,0,0,1,11.41,1.34A33.36,33.36,0,0,1,82,104c2.37,1.73,3.52,3.45,3.17,4.7S83,110.85,80,111.11a33.31,33.31,0,0,1-11.4-1.34c-8.9-2.48-14.32-7-13.63-9.46.29-1,1.62-1.81,3.73-2.2C59.17,98,59.64,98,60.15,97.92Z"/><path class="cls-8" d="M73.8,103.84a3.77,3.77,0,1,1-4.38-3A3.76,3.76,0,0,1,73.8,103.84Z"/><path class="cls-8" d="M66.51,90.27a2.22,2.22,0,1,1-2.58-1.77A2.22,2.22,0,0,1,66.51,90.27Z"/><path class="cls-8" d="M87.44,106.12a2.22,2.22,0,1,1-2.58-1.78A2.22,2.22,0,0,1,87.44,106.12Z"/><path class="cls-8" d="M59.67,108.68a2.21,2.21,0,1,1-2.57-1.78A2.2,2.2,0,0,1,59.67,108.68Z"/><path class="cls-8" d="M28.08,168a.61.61,0,0,1-.62-.55c-2.35-21.33,3.72-72.77,3.78-73.29a.62.62,0,0,1,.69-.54.63.63,0,0,1,.55.69c-.07.52-6.12,51.81-3.78,73a.63.63,0,0,1-.55.69Z"/><path class="cls-8" d="M79.49,159.44a64.74,64.74,0,0,1-29.68-6.82c-8-4.11-12-8.52-12.17-8.71a.63.63,0,0,1,0-.88.64.64,0,0,1,.88.05,44,44,0,0,0,11.86,8.46c7.22,3.7,19.28,7.8,35.72,6.36a.62.62,0,1,1,.11,1.24C83.92,159.35,81.66,159.44,79.49,159.44Z"/><path class="cls-8" d="M42.68,102l-.11,0a.58.58,0,0,1-.41-.72c1.87-7,7-23,7.09-23.19a.59.59,0,1,1,1.12.36c0,.16-5.21,16.17-7.08,23.14A.59.59,0,0,1,42.68,102Z"/><path class="cls-8" d="M52.85,147.67l.16,0c12.59.59,26.08-12,26.65-12.54a.75.75,0,0,0,0-1.05.74.74,0,0,0-1,0c-.14.13-13.61,12.7-25.56,12.14a.74.74,0,0,0-.77.71A.73.73,0,0,0,52.85,147.67Z"/><path class="cls-8" d="M73.72,73.45c-9-.8-16.44-12-16.76-12.49a.72.72,0,0,1,.21-1,.71.71,0,0,1,1,.2c.07.12,7.41,11.12,15.69,11.85h0c5.87.51,8.71-5.37,8.82-5.62A.72.72,0,1,1,84,67c-.13.29-3.37,7-10.25,6.44Z"/><path class="cls-8" d="M94.12,117.13l-.11,0a.58.58,0,0,1-.41-.72c1.87-7,7-23,7.09-23.19a.59.59,0,0,1,1.12.36c0,.16-5.22,16.17-7.08,23.14A.59.59,0,0,1,94.12,117.13Z"/><path class="cls-1" d="M82.44,56.65l-.8,5.88a16.55,16.55,0,0,1-2.15,1.2c-10.4,4.83-19.7-4.17-19.7-4.17l1.33-13.19,18.95,8.19Z"/><path class="cls-3" d="M82.44,56.65l-.8,5.88a16.55,16.55,0,0,1-2.15,1.2c-7.68-4.55-12.38-14.49-12.38-14.49l13,5.32Z"/><path class="cls-2" d="M91.84,35.63s3.64-3.28,4.9.66S95.63,47.54,91,45.66Z"/><path class="cls-3" d="M58.62,37.25s-4.92-12.93-.17-22.94,22.07-13,31.65-9C101.19,10,100.28,23.56,95,34.38Z"/><path class="cls-3" d="M64.82,10.55S62.16,6.35,58,7c0,0,2.49,2.13,2.63,4.25a7.42,7.42,0,0,0-4.12,1.08s2.9,1.1,3.72,2.86S67,19.21,64.82,10.55Z"/><path class="cls-3" d="M88.82,10.12S96.25,8,102.88,11.74c0,0-3.45,1-4.64,6.3C98.24,18,84.88,16.76,88.82,10.12Z"/><path class="cls-3" d="M83.79,7s8.45,0,9.55-7c0,0,6.42,7,1.55,14.07C94.89,14.07,84.62,14,83.79,7Z"/><path class="cls-1" d="M93.69,46.51S91.86,58,80,56.33a31.42,31.42,0,0,1-18.89-10h0l.19-2.42,1-12.52.55-6.7S63,12.55,74.66,11.91c8.52-.47,16.13,2,19.47,6.84.11.16.22.32.31.48a10.3,10.3,0,0,1,1.48,5.88l-1.25,12L94.36,40Z"/><path class="cls-3" d="M62.32,31.42A7.45,7.45,0,0,1,64.77,36h1.79s.1-9.17,1.19-11.55,5-3.66,4.87-7.32c0,0,13.4,3.63,17,1a3.6,3.6,0,0,1-1,3.45s3.1.26,4.1-1.52c0,0-.1,5.38,3.71,6.39,0,0,3.13-9.71-8.15-15.2S58.05,10.39,62.32,31.42Z"/><path class="cls-3" d="M84.2,38.36a4,4,0,0,0,4-1.51.46.46,0,0,0,0-.41c-1.37-4.18-2.75-8.48-2.77-8.52a.47.47,0,0,0-.59-.31.48.48,0,0,0-.31.6S86,32.39,87.3,36.5a3.21,3.21,0,0,1-3,.92.49.49,0,0,0-.54.41A.47.47,0,0,0,84.2,38.36Z"/><path class="cls-2" d="M94.36,40c-.3,0-.61,0-.92-.09-2.11-.28-3.73-1.19-3.62-2s1.92-1.27,4-1c.29,0,.57.09.83.15Z"/><path class="cls-2" d="M79,36.46c-.11.83-1.91,1.27-4,1s-3.73-1.19-3.61-2,1.91-1.27,4-1S79.12,35.63,79,36.46Z"/><path class="cls-3" d="M74,25.16h0A2.72,2.72,0,0,0,77.36,27a15.11,15.11,0,0,1,2.81-.52,2.48,2.48,0,0,0,2.27-2.8h0S77,22.42,74,25.16Z"/><path class="cls-3" d="M95.49,28.07h0A2.71,2.71,0,0,1,91.8,29a15,15,0,0,0-2.57-1.25,2.48,2.48,0,0,1-1.44-3.31h0S93.38,24.65,95.49,28.07Z"/><path class="cls-9" d="M77.49,39.38s.33,5.23,4.12,7c4.31,2,6.69-3.43,6.69-3.43Z"/><path class="cls-2" d="M82.84,48.48a2.33,2.33,0,0,0,.29,0,.39.39,0,0,0,.32-.44.38.38,0,0,0-.44-.31,2.44,2.44,0,0,1-2.23-.93.4.4,0,0,0-.54-.09.38.38,0,0,0-.08.53A3.13,3.13,0,0,0,82.84,48.48Z"/><path class="cls-3" d="M79.51,31.77c-.15,1.14-.79,2-1.43,1.9s-1-1.08-.88-2.22.8-2,1.44-1.9S79.67,30.63,79.51,31.77Z"/><path class="cls-3" d="M90.79,33.3c-.15,1.14-.8,2-1.43,1.91s-1-1.08-.88-2.22.8-2,1.44-1.91S91,32.16,90.79,33.3Z"/><path class="cls-3" d="M65.46,42.25c-.07.12-2,3.39-4.34,4.12h0l.2-2.42A8.21,8.21,0,0,0,65.46,42.25Z"/><path class="cls-1" d="M64.45,34.05s-3.73-6.74-7.72-2.39c-3.29,3.59.51,14.63,6.43,11.83Z"/><path class="cls-3" d="M62.79,41.56h.05a.49.49,0,0,0,.49-.46,8.85,8.85,0,0,0-4.18-7.79.48.48,0,0,0-.64.18.48.48,0,0,0,.18.65h0a7.92,7.92,0,0,1,3.69,6.93A.47.47,0,0,0,62.79,41.56Z"/><path class="cls-3" d="M58.8,38.13a.51.51,0,0,0,.31-.07c.45-.27,1.8-.92,2.58-.6a.48.48,0,0,0,.62-.26.49.49,0,0,0-.26-.62c-1.36-.55-3.23.55-3.43.67a.47.47,0,0,0-.16.65A.47.47,0,0,0,58.8,38.13Z"/><path class="cls-1" d="M89.67,170.7s.06,19.59,3,24.81c0,0,10.19-7.84,8.21-23.06C99.58,162.24,89.67,170.7,89.67,170.7Z"/><path class="cls-5" d="M42.4,61.61A36.62,36.62,0,0,1,52.53,87.4c-.21,16.18-13.26,34.86-26.79,38.53a20,20,0,0,0-1.33,12.13S50.22,135.24,59.35,102,50.6,59.56,50.6,59.56C48.34,58.4,44.16,59.91,42.4,61.61Z"/><path class="cls-4" d="M52.33,83.57a.5.5,0,0,1-.21-.95c.16-.08,4-1.84,9.9-.49a.5.5,0,0,1,.37.6.49.49,0,0,1-.6.37,15.45,15.45,0,0,0-9.25.42A.41.41,0,0,1,52.33,83.57Z"/><path class="cls-4" d="M57.34,105.77A26.46,26.46,0,0,1,48.4,104a.5.5,0,0,1-.28-.65.51.51,0,0,1,.66-.27,25.13,25.13,0,0,0,9.56,1.63.51.51,0,0,1,.53.47.5.5,0,0,1-.47.53Z"/><path class="cls-4" d="M53,85.4a23.51,23.51,0,0,1,7.84-.49,2.41,2.41,0,0,1,2.07,2.64,102.48,102.48,0,0,1-2.22,13.69A2.41,2.41,0,0,1,58,103l-6.62-.89a2.41,2.41,0,0,1-2-3,53.43,53.43,0,0,0,1.7-11.4A2.41,2.41,0,0,1,53,85.4Z"/><path class="cls-1" d="M34.63,109.88s8-7.13,10.68-7.33,3.63.81,3.63.81l-.68,2.28s9.59-.85,10.7.31-.55,3-.55,3,.43-.36.54,1.15-1.72,2.59-1.72,2.59.47.45.4,1.8-1.86,2.68-1.86,2.68.46,1-.64,2.83-9.34,4.42-14.64,3.57S31.41,115.56,34.63,109.88Z"/><path class="cls-1" d="M44.36,83.22l-6.43,7.7c-2.15,2.59-4.29,5.18-6.38,7.78s-4.14,5.19-6.09,7.79c-1,1.3-1.92,2.6-2.81,3.88s-1.75,2.56-2.49,3.77c-.37.61-.71,1.19-1,1.74s-.54,1-.69,1.38l-.06.13,0,.09c0,.07,0,.08-.06.11s0,0,0,0v0s0,0,0,0,0-.21,0-.31V117a.81.81,0,0,0,0-.22,1.62,1.62,0,0,0,0-.22.49.49,0,0,1,0-.13v-.14c0-.1,0-.2,0-.29s0-.18-.06-.31A5.27,5.27,0,0,0,18,115a5.84,5.84,0,0,0-.29-.73,6.1,6.1,0,0,0-.39-.71l-.23-.33a2.34,2.34,0,0,0-.24-.31c-.07-.09-.18-.2-.25-.28a2.61,2.61,0,0,0-.23-.24l-.26-.23-.22-.18a3.83,3.83,0,0,0-.43-.3l-.18-.11-.1,0-.05,0,0,0a1.78,1.78,0,0,0-.29-.12l-.11,0-.09,0-.15,0h-.1s-.07,0,0,0a2.71,2.71,0,0,0,.95.21,13.6,13.6,0,0,0,1.77.08c.66,0,1.36,0,2.09-.07,1.46-.09,3-.25,4.57-.45s3.17-.45,4.78-.72,3.24-.54,4.87-.86c.82-.15,1.63-.3,2.45-.47l1.22-.23.6-.12.3,0,.27-.05.61-.08a6.54,6.54,0,0,1,3.72,12.37l-.66.31-.62.3c-.42.19-.83.39-1.25.57l-2.49,1.09c-1.68.68-3.37,1.36-5.09,2s-3.48,1.2-5.29,1.73c-.9.27-1.82.52-2.75.75s-1.89.46-2.87.65-2,.38-3.06.52S16.25,129,15,129a20.91,20.91,0,0,1-4.2-.28,11.46,11.46,0,0,1-1.29-.27c-.23-.05-.49-.13-.72-.2l-.37-.11L8.05,128l-.4-.15-.4-.17q-.44-.19-.87-.42l-.1-.05-.12-.07L5.93,127l-.47-.29a9.78,9.78,0,0,1-.94-.67l-.47-.39-.49-.45a10.05,10.05,0,0,1-.92-1l-.43-.57a6.25,6.25,0,0,1-.4-.6,10.6,10.6,0,0,1-.7-1.28c-.19-.43-.37-.88-.52-1.33a12,12,0,0,1-.34-1.31,5.22,5.22,0,0,1-.11-.63c0-.2-.06-.4-.08-.61l0-.3c0-.11,0-.21,0-.3s0-.36,0-.54v-.82l0-.23c0-.32.06-.64.09-1s0-.25.06-.37l.06-.33a5.23,5.23,0,0,1,.12-.64c.08-.39.18-.8.27-1.14l.15-.53.15-.49c.41-1.28.85-2.37,1.29-3.39s.9-2,1.37-2.87c.93-1.81,1.89-3.48,2.87-5.1s2-3.17,3-4.7c2-3,4.14-6,6.3-8.81s4.36-5.63,6.63-8.36c1.13-1.36,2.27-2.72,3.43-4,.59-.67,1.17-1.34,1.76-2l.89-1,.46-.5.48-.51a10,10,0,0,1,15,13.17Z"/><path class="cls-3" d="M46.55,83.94,28.23,108,6.94,92.21s17.9-26,27.39-28.13c5.26-1.19,9-.27,12.19,3.67A13.19,13.19,0,0,1,46.55,83.94Z"/><path class="cls-2" d="M4.8,113.22a.59.59,0,0,1-.29-.33.56.56,0,0,1,.35-.71c6.38-2.13,16.84-2.06,17.28-2.05a.56.56,0,0,1,0,1.11c-.11,0-10.72-.08-16.91,2A.55.55,0,0,1,4.8,113.22Z"/><path class="cls-2" d="M20.1,111.18a.36.36,0,0,1-.15-.1c-1.71-1.64-5.53-2.89-5.57-2.91a.56.56,0,0,1-.36-.7.57.57,0,0,1,.71-.36c.16.06,4.11,1.35,6,3.17a.56.56,0,0,1,0,.79A.54.54,0,0,1,20.1,111.18Z"/></g></g></svg>